<svg width="180" height="180" viewBox="0 0 180 180" fill="none" xmlns="http://www.w3.org/2000/svg">
  <rect width="180" height="180" rx="45" fill="url(#gradient)" />
  <defs>
    <linearGradient id="gradient" x1="0%" y1="0%" x2="100%" y2="100%">
      <stop offset="0%" style="stop-color:#3b82f6;stop-opacity:1" />
      <stop offset="100%" style="stop-color:#1e40af;stop-opacity:1" />
    </linearGradient>
  </defs>
  
  <!-- Server Rack -->
  <rect x="33.75" y="45" width="112.5" height="90" rx="5.625" fill="#f8fafc" stroke="#e2e8f0" stroke-width="2.8125"/>
  
  <!-- Server Units -->
  <rect x="39.375" y="50.625" width="101.25" height="11.25" rx="2.8125" fill="#64748b"/>
  <rect x="39.375" y="67.5" width="101.25" height="11.25" rx="2.8125" fill="#64748b"/>
  <rect x="39.375" y="84.375" width="101.25" height="11.25" rx="2.8125" fill="#64748b"/>
  <rect x="39.375" y="101.25" width="101.25" height="11.25" rx="2.8125" fill="#64748b"/>
  <rect x="39.375" y="118.125" width="101.25" height="11.25" rx="2.8125" fill="#64748b"/>
  
  <!-- Status Lights -->
  <circle cx="129.375" cy="56.25" r="4.21875" fill="#10b981"/>
  <circle cx="129.375" cy="73.125" r="4.21875" fill="#10b981"/>
  <circle cx="129.375" cy="90" r="4.21875" fill="#f59e0b"/>
  <circle cx="129.375" cy="106.875" r="4.21875" fill="#10b981"/>
  <circle cx="129.375" cy="123.75" r="4.21875" fill="#ef4444"/>
  
  <!-- Network Symbol -->
  <path d="M56.25 146.25 L67.5 157.5 L78.75 146.25 M90 146.25 L101.25 157.5 L112.5 146.25" stroke="#3b82f6" stroke-width="5.625" fill="none" stroke-linecap="round"/>
  
  <!-- Dollar Sign -->
  <circle cx="154.6875" cy="28.125" r="22.5" fill="#fbbf24"/>
  <text x="154.6875" y="39.375" text-anchor="middle" fill="white" font-size="28.125" font-weight="bold">$</text>
</svg>