<svg width="512" height="512" viewBox="0 0 512 512" fill="none" xmlns="http://www.w3.org/2000/svg">
  <rect width="512" height="512" rx="128" fill="url(#gradient)" />
  <defs>
    <linearGradient id="gradient" x1="0%" y1="0%" x2="100%" y2="100%">
      <stop offset="0%" style="stop-color:#3b82f6;stop-opacity:1" />
      <stop offset="100%" style="stop-color:#1e40af;stop-opacity:1" />
    </linearGradient>
  </defs>
  
  <!-- Server Rack -->
  <rect x="96" y="128" width="320" height="256" rx="16" fill="#f8fafc" stroke="#e2e8f0" stroke-width="8"/>
  
  <!-- Server Units -->
  <rect x="112" y="144" width="288" height="32" rx="8" fill="#64748b"/>
  <rect x="112" y="192" width="288" height="32" rx="8" fill="#64748b"/>
  <rect x="112" y="240" width="288" height="32" rx="8" fill="#64748b"/>
  <rect x="112" y="288" width="288" height="32" rx="8" fill="#64748b"/>
  <rect x="112" y="336" width="288" height="32" rx="8" fill="#64748b"/>
  
  <!-- Status Lights -->
  <circle cx="368" cy="160" r="12" fill="#10b981"/>
  <circle cx="368" cy="208" r="12" fill="#10b981"/>
  <circle cx="368" cy="256" r="12" fill="#f59e0b"/>
  <circle cx="368" cy="304" r="12" fill="#10b981"/>
  <circle cx="368" cy="352" r="12" fill="#ef4444"/>
  
  <!-- Network Symbol -->
  <path d="M160 416 L192 448 L224 416 M256 416 L288 448 L320 416" stroke="#3b82f6" stroke-width="16" fill="none" stroke-linecap="round"/>
  
  <!-- Dollar Sign -->
  <circle cx="440" cy="80" r="64" fill="#fbbf24"/>
  <text x="440" y="112" text-anchor="middle" fill="white" font-size="80" font-weight="bold">$</text>
</svg>