<svg width="192" height="192" viewBox="0 0 192 192" fill="none" xmlns="http://www.w3.org/2000/svg">
  <rect width="192" height="192" rx="48" fill="url(#gradient)" />
  <defs>
    <linearGradient id="gradient" x1="0%" y1="0%" x2="100%" y2="100%">
      <stop offset="0%" style="stop-color:#3b82f6;stop-opacity:1" />
      <stop offset="100%" style="stop-color:#1e40af;stop-opacity:1" />
    </linearGradient>
  </defs>
  
  <!-- Server Rack -->
  <rect x="36" y="48" width="120" height="96" rx="6" fill="#f8fafc" stroke="#e2e8f0" stroke-width="3"/>
  
  <!-- Server Units -->
  <rect x="42" y="54" width="108" height="12" rx="3" fill="#64748b"/>
  <rect x="42" y="72" width="108" height="12" rx="3" fill="#64748b"/>
  <rect x="42" y="90" width="108" height="12" rx="3" fill="#64748b"/>
  <rect x="42" y="108" width="108" height="12" rx="3" fill="#64748b"/>
  <rect x="42" y="126" width="108" height="12" rx="3" fill="#64748b"/>
  
  <!-- Status Lights -->
  <circle cx="138" cy="60" r="4.5" fill="#10b981"/>
  <circle cx="138" cy="78" r="4.5" fill="#10b981"/>
  <circle cx="138" cy="96" r="4.5" fill="#f59e0b"/>
  <circle cx="138" cy="114" r="4.5" fill="#10b981"/>
  <circle cx="138" cy="132" r="4.5" fill="#ef4444"/>
  
  <!-- Network Symbol -->
  <path d="M60 156 L72 168 L84 156 M96 156 L108 168 L120 156" stroke="#3b82f6" stroke-width="6" fill="none" stroke-linecap="round"/>
  
  <!-- Dollar Sign -->
  <circle cx="165" cy="30" r="24" fill="#fbbf24"/>
  <text x="165" y="42" text-anchor="middle" fill="white" font-size="30" font-weight="bold">$</text>
</svg>