<svg width="64" height="64" viewBox="0 0 64 64" fill="none" xmlns="http://www.w3.org/2000/svg">
  <rect width="64" height="64" rx="16" fill="url(#gradient)" />
  <defs>
    <linearGradient id="gradient" x1="0%" y1="0%" x2="100%" y2="100%">
      <stop offset="0%" style="stop-color:#3b82f6;stop-opacity:1" />
      <stop offset="100%" style="stop-color:#1e40af;stop-opacity:1" />
    </linearGradient>
  </defs>
  
  <!-- Server Rack -->
  <rect x="12" y="16" width="40" height="32" rx="2" fill="#f8fafc" stroke="#e2e8f0" stroke-width="1"/>
  
  <!-- Server Units -->
  <rect x="14" y="18" width="36" height="4" rx="1" fill="#64748b"/>
  <rect x="14" y="24" width="36" height="4" rx="1" fill="#64748b"/>
  <rect x="14" y="30" width="36" height="4" rx="1" fill="#64748b"/>
  <rect x="14" y="36" width="36" height="4" rx="1" fill="#64748b"/>
  <rect x="14" y="42" width="36" height="4" rx="1" fill="#64748b"/>
  
  <!-- Status Lights -->
  <circle cx="46" cy="20" r="1.5" fill="#10b981"/>
  <circle cx="46" cy="26" r="1.5" fill="#10b981"/>
  <circle cx="46" cy="32" r="1.5" fill="#f59e0b"/>
  <circle cx="46" cy="38" r="1.5" fill="#10b981"/>
  <circle cx="46" cy="44" r="1.5" fill="#ef4444"/>
  
  <!-- Network Symbol -->
  <path d="M20 52 L24 56 L28 52 M32 52 L36 56 L40 52" stroke="#3b82f6" stroke-width="2" fill="none" stroke-linecap="round"/>
  
  <!-- Dollar Sign -->
  <circle cx="55" cy="10" r="8" fill="#fbbf24"/>
  <text x="55" y="14" text-anchor="middle" fill="white" font-size="10" font-weight="bold">$</text>
</svg>